<svg width="20" height="21" viewBox="0 0 20 21" fill="none" xmlns="http://www.w3.org/2000/svg">
<rect x="0.25" y="0.25" width="19.5" height="20.5" rx="4.75" stroke="#A0A0A0" stroke-width="0.5"/>
<path fill-rule="evenodd" clip-rule="evenodd" d="M5.5 7.625C5.5 7.41789 5.66789 7.25 5.875 7.25H14.125C14.3321 7.25 14.5 7.41789 14.5 7.625C14.5 7.83211 14.3321 8 14.125 8H5.875C5.66789 8 5.5 7.83211 5.5 7.625Z" fill="black"/>
<path fill-rule="evenodd" clip-rule="evenodd" d="M8.875 9.5C9.08211 9.5 9.25 9.66789 9.25 9.875V12.875C9.25 13.0821 9.08211 13.25 8.875 13.25C8.66789 13.25 8.5 13.0821 8.5 12.875V9.875C8.5 9.66789 8.66789 9.5 8.875 9.5Z" fill="black"/>
<path fill-rule="evenodd" clip-rule="evenodd" d="M11.125 9.5C11.3321 9.5 11.5 9.66789 11.5 9.875V12.875C11.5 13.0821 11.3321 13.25 11.125 13.25C10.9179 13.25 10.75 13.0821 10.75 12.875V9.875C10.75 9.66789 10.9179 9.5 11.125 9.5Z" fill="black"/>
<path fill-rule="evenodd" clip-rule="evenodd" d="M6.625 7.25C6.83211 7.25 7 7.41789 7 7.625V14.75H13V7.625C13 7.41789 13.1679 7.25 13.375 7.25C13.5821 7.25 13.75 7.41789 13.75 7.625V14.75C13.75 14.9489 13.671 15.1397 13.5303 15.2803C13.3897 15.421 13.1989 15.5 13 15.5H7C6.80109 15.5 6.61032 15.421 6.46967 15.2803C6.32902 15.1397 6.25 14.9489 6.25 14.75V7.625C6.25 7.41789 6.41789 7.25 6.625 7.25Z" fill="black"/>
<path fill-rule="evenodd" clip-rule="evenodd" d="M8.07951 6.0795C8.29048 5.86853 8.57663 5.75 8.875 5.75H11.125C11.4234 5.75 11.7095 5.86853 11.9205 6.0795C12.1315 6.29048 12.25 6.57663 12.25 6.875V7.625C12.25 7.83211 12.0821 8 11.875 8C11.6679 8 11.5 7.83211 11.5 7.625V6.875C11.5 6.77554 11.4605 6.68016 11.3902 6.60983C11.3198 6.53951 11.2245 6.5 11.125 6.5H8.875C8.77554 6.5 8.68016 6.53951 8.60984 6.60983C8.53951 6.68016 8.5 6.77554 8.5 6.875V7.625C8.5 7.83211 8.33211 8 8.125 8C7.91789 8 7.75 7.83211 7.75 7.625V6.875C7.75 6.57663 7.86853 6.29048 8.07951 6.0795Z" fill="black"/>
</svg>
