<svg width="455" height="266" viewBox="0 0 455 266" fill="none" xmlns="http://www.w3.org/2000/svg">
<path d="M19.2242 30H64.2242V45H35.7242V72.75H58.3742V87.75H35.7242V120H64.2242V135H19.2242V30ZM87.9594 136.5C79.9594 136.5 73.9094 134.25 69.8094 129.75C65.7094 125.15 63.6594 118.6 63.6594 110.1V104.1H79.2594V111.3C79.2594 118.1 82.1094 121.5 87.8094 121.5C90.6094 121.5 92.7094 120.7 94.1094 119.1C95.6094 117.4 96.3594 114.7 96.3594 111C96.3594 106.6 95.3594 102.75 93.3594 99.45C91.3594 96.05 87.6594 92 82.2594 87.3C75.4594 81.3 70.7094 75.9 68.0094 71.1C65.3094 66.2 63.9594 60.7 63.9594 54.6C63.9594 46.3 66.0594 39.9 70.2594 35.4C74.4594 30.8 80.5594 28.5 88.5594 28.5C96.4594 28.5 102.409 30.8 106.409 35.4C110.509 39.9 112.559 46.4 112.559 54.9V59.25H96.9594V53.85C96.9594 50.25 96.2594 47.65 94.8594 46.05C93.4594 44.35 91.4094 43.5 88.7094 43.5C83.2094 43.5 80.4594 46.85 80.4594 53.55C80.4594 57.35 81.4594 60.9 83.4594 64.2C85.5594 67.5 89.3094 71.5 94.7094 76.2C101.609 82.2 106.359 87.65 108.959 92.55C111.559 97.45 112.859 103.2 112.859 109.8C112.859 118.4 110.709 125 106.409 129.6C102.209 134.2 96.0594 136.5 87.9594 136.5ZM138.07 136.5C130.17 136.5 124.12 134.25 119.92 129.75C115.82 125.25 113.77 118.9 113.77 110.7V54.3C113.77 46.1 115.82 39.75 119.92 35.25C124.12 30.75 130.17 28.5 138.07 28.5C145.97 28.5 151.97 30.75 156.07 35.25C160.27 39.75 162.37 46.1 162.37 54.3V65.4H146.77V53.25C146.77 46.75 144.02 43.5 138.52 43.5C133.02 43.5 130.27 46.75 130.27 53.25V111.9C130.27 118.3 133.02 121.5 138.52 121.5C144.02 121.5 146.77 118.3 146.77 111.9V95.85H162.37V110.7C162.37 118.9 160.27 125.25 156.07 129.75C151.97 134.25 145.97 136.5 138.07 136.5ZM177.492 30H199.842L216.942 135H200.442L197.442 114.15V114.45H178.692L175.692 135H160.392L177.492 30ZM195.492 100.2L188.142 48.3H187.842L180.642 100.2H195.492ZM217.447 30H241.897C250.397 30 256.597 32 260.497 36C264.397 39.9 266.347 45.95 266.347 54.15V60.6C266.347 71.5 262.747 78.4 255.547 81.3V81.6C259.547 82.8 262.347 85.25 263.947 88.95C265.647 92.65 266.497 97.6 266.497 103.8V122.25C266.497 125.25 266.597 127.7 266.797 129.6C266.997 131.4 267.497 133.2 268.297 135H251.497C250.897 133.3 250.497 131.7 250.297 130.2C250.097 128.7 249.997 126 249.997 122.1V102.9C249.997 98.1 249.197 94.75 247.597 92.85C246.097 90.95 243.447 90 239.647 90H233.947V135H217.447V30ZM239.947 75C243.247 75 245.697 74.15 247.297 72.45C248.997 70.75 249.847 67.9 249.847 63.9V55.8C249.847 52 249.147 49.25 247.747 47.55C246.447 45.85 244.347 45 241.447 45H233.947V75H239.947ZM293.845 136.5C285.845 136.5 279.745 134.25 275.545 129.75C271.345 125.15 269.245 118.6 269.245 110.1V54.9C269.245 46.4 271.345 39.9 275.545 35.4C279.745 30.8 285.845 28.5 293.845 28.5C301.845 28.5 307.945 30.8 312.145 35.4C316.345 39.9 318.445 46.4 318.445 54.9V63.9H302.845V53.85C302.845 46.95 299.995 43.5 294.295 43.5C288.595 43.5 285.745 46.95 285.745 53.85V111.3C285.745 118.1 288.595 121.5 294.295 121.5C299.995 121.5 302.845 118.1 302.845 111.3V90.75H294.595V75.75H318.445V110.1C318.445 118.6 316.345 125.15 312.145 129.75C307.945 134.25 301.845 136.5 293.845 136.5ZM345.389 136.5C337.289 136.5 331.089 134.2 326.789 129.6C322.489 125 320.339 118.5 320.339 110.1V54.9C320.339 46.5 322.489 40 326.789 35.4C331.089 30.8 337.289 28.5 345.389 28.5C353.489 28.5 359.689 30.8 363.989 35.4C368.289 40 370.439 46.5 370.439 54.9V110.1C370.439 118.5 368.289 125 363.989 129.6C359.689 134.2 353.489 136.5 345.389 136.5ZM345.389 121.5C351.089 121.5 353.939 118.05 353.939 111.15V53.85C353.939 46.95 351.089 43.5 345.389 43.5C339.689 43.5 336.839 46.95 336.839 53.85V111.15C336.839 118.05 339.689 121.5 345.389 121.5ZM386.411 45H369.161V30H420.161V45H402.911V135H386.411V45Z" fill="white"/>
<path d="M45.1727 152.7C44.0727 152.7 43.1227 153.1 42.3227 153.9C41.5227 154.7 41.1227 155.65 41.1227 156.75H34.2227C34.2227 152.25 36.3727 148.9 40.6727 146.7C41.6727 146.2 43.0227 145.95 44.7227 145.95H100.523V152.7H71.7227V228H64.5227V152.7H45.1727ZM98.6887 188.4V186.15C98.6887 173.95 102.639 163.75 110.539 155.55C118.539 147.35 128.539 143.25 140.539 143.25C152.439 143.25 162.389 147.4 170.389 155.7C178.489 163.9 182.539 174.05 182.539 186.15V188.4C182.539 200.6 178.589 210.8 170.689 219C162.889 227.2 152.989 231.3 140.989 231.3C128.989 231.3 118.939 227.15 110.839 218.85C102.739 210.55 98.6887 200.4 98.6887 188.4ZM175.789 188.4V186.15C175.789 175.75 172.439 167.1 165.739 160.2C159.039 153.3 150.589 149.85 140.389 149.85C130.389 149.85 122.039 153.35 115.339 160.35C108.739 167.35 105.439 175.95 105.439 186.15V188.4C105.439 198.5 108.739 207.1 115.339 214.2C122.039 221.2 130.389 224.7 140.389 224.7C150.589 224.7 159.039 221.25 165.739 214.35C172.439 207.35 175.789 198.7 175.789 188.4ZM284.709 253.5C285.909 253.5 286.909 253.05 287.709 252.15C288.509 251.35 288.959 250.4 289.059 249.3V218.1C282.259 227.2 272.959 231.75 261.159 231.75C249.459 231.75 239.709 227.55 231.909 219.15C224.209 210.75 220.359 200.6 220.359 188.7C220.359 176.2 224.409 165.6 232.509 156.9C240.609 148.1 250.759 143.7 262.959 143.7C270.159 143.7 276.459 145.2 281.859 148.2C287.259 151.2 289.959 155.55 289.959 161.25C289.959 164.45 288.959 167.15 286.959 169.35C284.959 171.45 282.459 172.5 279.459 172.5C277.059 172.5 274.859 171.75 272.859 170.25L277.059 165.15C277.759 165.65 278.559 165.9 279.459 165.9C280.659 165.9 281.609 165.5 282.309 164.7C283.109 163.8 283.509 162.7 283.509 161.4C283.509 157.7 281.409 154.95 277.209 153.15C273.009 151.25 268.359 150.3 263.259 150.3C252.759 150.3 244.059 154.05 237.159 161.55C230.259 168.95 226.809 178 226.809 188.7C226.809 198.9 230.109 207.55 236.709 214.65C243.309 221.75 251.559 225.3 261.459 225.3C269.259 225.3 275.809 222.65 281.109 217.35C286.409 212.05 289.059 206.65 289.059 201.15V191.7H295.809V249.3C295.809 254.2 293.509 257.65 288.909 259.65C287.609 260.25 286.209 260.55 284.709 260.55C280.809 260.55 277.759 258.9 275.559 255.6L281.259 251.7C282.159 252.9 283.309 253.5 284.709 253.5Z" fill="white"/>
<path d="M416.085 129.294C416.085 109.184 408.365 89.073 416.085 79.0176C423.804 68.9623 427.664 89.073 423.804 89.073C418.347 89.073 416.085 99.1283 419.945 114.211C423.804 129.294 416.085 134.317 416.085 129.294ZM431.042 129.294C431.042 109.184 423.322 89.073 431.042 79.0176C438.761 68.9623 442.621 89.073 438.761 89.073C433.303 89.073 431.042 99.1283 434.901 114.211C438.761 129.294 431.042 134.317 431.042 129.294Z" fill="white"/>
<path d="M297.566 230.413C297.566 235.631 301.913 235.631 306.261 235.631H406.261C428 235.631 437.879 219.506 441.044 204.32C445.392 183.446 432.348 146.917 441.044 141.698C449.74 136.48 454.087 136.48 454.087 126.043C454.087 115.606 434.653 98.5675 423.653 105.169C406.261 115.606 411.622 141.344 414.957 157.354C418.783 175.733 410.109 176.109 393.218 183.446C371.74 192.772 339.653 206.617 332.348 209.539C319.305 214.757 297.566 225.194 297.566 230.413Z" fill="white"/>
<path d="M407.591 177.512C395.04 182.747 390.858 224.633 349.024 224.633C321.301 224.633 311.376 195.947 311.376 167.04C311.376 138.123 333.851 114.683 361.574 114.683C389.297 114.688 411.56 175.857 407.591 177.512V177.512Z" fill="white"/>
<path d="M345.425 224.637C337.715 224.637 330.128 222.16 323.344 217.319C313.481 210.296 306.512 199.119 303.718 185.852C296.812 153.016 313.675 119.624 341.313 111.413C374.682 101.49 408.653 125.697 416.998 165.365C418.163 170.897 415.333 176.501 410.684 177.884C406.048 179.282 401.313 175.908 400.144 170.376C394.123 141.756 369.627 124.294 345.528 131.446C327.189 136.895 315.991 159.059 320.577 180.851C322.242 188.762 326.399 195.434 332.285 199.63C335.149 201.697 338.355 203.069 341.702 203.66C345.05 204.252 348.468 204.049 351.744 203.067C354.171 202.342 356.446 201.067 358.434 199.318C360.422 197.569 362.082 195.382 363.317 192.885C365.901 187.763 366.66 181.699 365.434 175.954C364.617 171.919 362.436 168.418 359.367 166.216C356.316 164.044 352.475 162.568 349.284 164.436C343.425 167.868 343.425 178.188 347.767 183.349C351.162 187.379 340.527 188.845 334.736 183.349C329.545 178.421 327.311 170.489 329.916 161.681C332.538 152.784 338.063 146.499 345.073 144.409C348.985 143.235 353.067 142.994 357.065 143.701C361.063 144.409 364.89 146.05 368.309 148.522C375.337 153.532 380.302 161.5 382.293 170.954C384.648 181.998 383.188 193.655 378.217 203.5C373.238 213.356 365.339 220.312 355.96 223.094C352.519 224.112 348.979 224.63 345.425 224.637V224.637Z" fill="#4C7972"/>
</svg>
