<svg width="157" height="160" viewBox="0 0 157 160" fill="none" xmlns="http://www.w3.org/2000/svg">
<path d="M118.519 53.0922C118.519 32.9815 110.8 12.8708 118.519 2.81549C126.239 -7.23984 130.099 12.8708 126.239 12.8708C120.781 12.8708 118.519 22.9262 122.379 38.0092C126.239 53.0922 118.519 58.1148 118.519 53.0922ZM133.476 53.0922C133.476 32.9815 125.757 12.8708 133.476 2.81549C141.196 -7.23984 145.056 12.8708 141.196 12.8708C135.738 12.8708 133.476 22.9262 137.336 38.0092C141.196 53.0922 133.476 58.1148 133.476 53.0922Z" fill="#4C7972"/>
<path d="M-0.00025177 154.211C-0.00025177 159.429 4.34757 159.429 8.6954 159.429H108.695C130.435 159.429 140.313 143.304 143.478 128.118C147.826 107.244 134.782 70.7148 143.478 65.4962C152.174 60.2777 156.521 60.2777 156.521 49.8407C156.521 39.4037 137.087 22.3653 126.087 28.9667C108.695 39.4037 114.056 65.1414 117.391 81.1518C121.217 99.5313 112.543 99.9071 95.6519 107.244C74.1737 116.57 42.0867 130.414 34.7824 133.337C21.7389 138.555 -0.00025177 148.992 -0.00025177 154.211Z" fill="#4C7972"/>
<path d="M110.026 101.31C97.4747 106.545 93.2926 148.431 51.4581 148.431C23.7351 148.431 13.8102 119.745 13.8102 90.838C13.8102 61.9209 36.2859 38.4805 64.0089 38.4805C91.7319 38.4857 113.995 99.655 110.026 101.31V101.31Z" fill="#4C7972"/>
<path d="M47.8597 148.435C40.1503 148.435 32.5628 145.958 25.7787 141.117C15.9162 134.094 8.94706 122.917 6.15307 109.649C-0.752894 76.8141 16.1103 43.4214 43.7477 35.2113C77.1175 25.2879 111.088 49.4952 119.434 89.1628C120.598 94.6947 117.768 100.299 113.119 101.682C108.483 103.08 103.748 99.7055 102.579 94.1736C96.5581 65.5542 72.0622 48.0916 47.9635 55.2438C29.6243 60.6931 18.4258 82.8569 23.0118 104.649C24.6773 112.56 28.8344 119.232 34.7203 123.428C37.5844 125.495 40.7897 126.867 44.1372 127.458C47.4846 128.049 50.9026 127.847 54.1789 126.864C56.6059 126.139 58.8808 124.865 60.8688 123.116C62.8568 121.367 64.5173 119.179 65.752 116.683C68.3365 111.561 69.0947 105.497 67.869 99.7519C67.0517 95.7171 64.8707 92.2163 61.8025 90.0143C58.7513 87.8418 54.9101 86.3659 51.7189 88.234C45.8601 91.6656 45.8601 101.986 50.2023 107.147C53.5966 111.177 42.9623 112.642 37.1713 107.147C31.9805 102.219 29.7462 94.2871 32.3506 85.4784C34.9731 76.5819 40.4978 70.2966 47.5076 68.2066C51.4203 67.0325 55.5026 66.7917 59.5002 67.4992C63.4978 68.2068 67.3252 69.8476 70.7442 72.3194C77.772 77.3301 82.7371 85.2977 84.7276 94.7515C87.0832 105.796 85.6233 117.453 80.6518 127.298C75.6732 137.154 67.7742 144.11 58.3947 146.892C54.9536 147.91 51.4141 148.428 47.8597 148.435V148.435Z" fill="white"/>
</svg>
